# xmcd
#
# Track frame offsets:
#	150
#	14800
#	27110
#	43732
#	56672
#	68045
#	82755
#	96457
#	107542
#	119072
#	129540
#	145485
#	161547
#	175512
#	196207
#	213382
#	223502
#	236665
#	249747
#	259782
#
# Disc length: 3645 seconds
#
# Revision: 1
# Processed by: cddbd v1.5.2PL0 Copyright (c) Steve Scherf et al.
# Submitted via: EasyCDDAExtractor 2010.6.0.0
#
DISCID=240e3b14
DTITLE=Various Artist - Rhinestone Cowboy - 20 Country Classics
DYEAR=1997
DGENRE=Country
TTITLE0=Glenn Campbell - Rhinestone Cowboy
TTITLE1=Johnny Cash - Ring of Fire
TTITLE2=Don McLean - Crying
TTITLE3=Dr. Hook - A Little bit More
TTITLE4=Crystal Gayle - Don't it Make my Brown Eyes Blue
TTITLE5=Olivia Newton-John - Banks of the Ohio
TTITLE6=Willie Nelson - Funny How Time Slips Away
TTITLE7=Roger Miller - King of the Road
TTITLE8=Booby Gentry and Glenn Campbell - All I have to do is Dream
TTITLE9=Slim Whitman - Rose Marie
TTITLE10=Billie Jo Spears - Blanket on the Ground
TTITLE11=Rita Coolidge - We're all Alone
TTITLE12=Suzy Bogguss - Under the Gun
TTITLE13=Pussycat - Mississippi
TTITLE14=C W McCall - Convoy
TTITLE15=Dave Dudley - Six days on the Road
TTITLE16=Faron Young - It's Four in the Morning
TTITLE17=Tania Tucker - San Antonio Stroll
TTITLE18=Conway Twitty - It's Only Make Believe
TTITLE19=Various Artist - Release Me
EXTD=
EXTT0=
EXTT1=
EXTT2=
EXTT3=
EXTT4=
EXTT5=
EXTT6=
EXTT7=
EXTT8=
EXTT9=
EXTT10=
EXTT11=
EXTT12=
EXTT13=
EXTT14=
EXTT15=
EXTT16=
EXTT17=
EXTT18=
EXTT19=
PLAYORDER=
